<?xml version="1.0" encoding="utf-8"?>
<!-- Svg Vector Icons : http://www.onlinewebfonts.com/icon -->
<!DOCTYPE svg PUBLIC "-//W3C//DTD SVG 1.1//EN" "http://www.w3.org/Graphics/SVG/1.1/DTD/svg11.dtd">
<svg version="1.1" xmlns="http://www.w3.org/2000/svg" xmlns:xlink="http://www.w3.org/1999/xlink" x="0px" y="0px" viewBox="0 0 1000 1000" enable-background="new 0 0 1000 1000" xml:space="preserve">
<metadata> Svg Vector Icons : http://www.onlinewebfonts.com/icon </metadata>
<g><path d="M10,501.6c0,0,436,673,980,6.1C990,507.7,540.6-186.1,10,501.6z M500,734.5c-129.6,0-234.5-105.1-234.5-234.5S370.4,265.6,500,265.6c129.6,0,234.5,104.9,234.5,234.5C734.5,629.6,629.6,734.5,500,734.5z"/><path d="M403,500c0,53.6,43.4,97,97,97s97-43.4,97-97c0-53.6-43.4-97.1-97-97.1C446.4,402.9,403,446.4,403,500C403,500,403,500,403,500L403,500z"/></g>
</svg>